HIERARCHY
ROOT joint_Root
{
	OFFSET 0.0 0.0 0.0
	CHANNELS 6 Xposition Yposition Zposition Zrotation Xrotation Yrotation 
	JOINT Hips
	{
		OFFSET 4.5925 91.4895 -427.239
		CHANNELS 6 Xposition Yposition Zposition Zrotation Xrotation Yrotation 
		JOINT Spine
		{
			OFFSET 15.7357 0.0 0.0
			CHANNELS 6 Xposition Yposition Zposition Zrotation Xrotation Yrotation 
			JOINT Chest
			{
				OFFSET 8.98455 -0.406207 0.0
				CHANNELS 6 Xposition Yposition Zposition Zrotation Xrotation Yrotation 
				JOINT Neck
				{
					OFFSET 16.3773 0.0 0.0
					CHANNELS 6 Xposition Yposition Zposition Zrotation Xrotation Yrotation 
					JOINT Head
					{
						OFFSET 6.45672 0.0 0.0
						CHANNELS 6 Xposition Yposition Zposition Zrotation Xrotation Yrotation 
						End Site
						{
							OFFSET 0.0 0.0 0.0
						}
					}
				}
				JOINT Shoulder_L
				{
					OFFSET 12.9942 -0.242716 4.98039
					CHANNELS 6 Xposition Yposition Zposition Zrotation Xrotation Yrotation 
					JOINT UpperArm_L
					{
						OFFSET 5.34809 0.0 0.0
						CHANNELS 6 Xposition Yposition Zposition Zrotation Xrotation Yrotation 
						JOINT LowerArm_L
						{
							OFFSET 24.3286 1.87007e-05 0.0
							CHANNELS 6 Xposition Yposition Zposition Zrotation Xrotation Yrotation 
							JOINT Hand_L
							{
								OFFSET 22.2916 0.0 0.0
								CHANNELS 6 Xposition Yposition Zposition Zrotation Xrotation Yrotation 
								End Site
								{
									OFFSET 0.0 0.0 0.0
								}
							}
						}
					}
				}
				JOINT Shoulder_R
				{
					OFFSET 12.9945 -0.242716 -4.98039
					CHANNELS 6 Xposition Yposition Zposition Zrotation Xrotation Yrotation 
					JOINT UpperArm_R
					{
						OFFSET -5.34813 0.0 0.0
						CHANNELS 6 Xposition Yposition Zposition Zrotation Xrotation Yrotation 
						JOINT LowerArm_R
						{
							OFFSET -24.3289 0.000322201 0.0
							CHANNELS 6 Xposition Yposition Zposition Zrotation Xrotation Yrotation 
							JOINT Hand_R
							{
								OFFSET -22.2915 -0.000108084 0.0
								CHANNELS 6 Xposition Yposition Zposition Zrotation Xrotation Yrotation 
								End Site
								{
									OFFSET 0.0 0.0 0.0
								}
							}
						}
					}
				}
			}
		}
		JOINT UpperLeg_L
		{
			OFFSET -2.19248 -6.46944 0.0
			CHANNELS 6 Xposition Yposition Zposition Zrotation Xrotation Yrotation 
			JOINT LowerLeg_L
			{
				OFFSET 39.0811 0.0 -1.23785e-05
				CHANNELS 6 Xposition Yposition Zposition Zrotation Xrotation Yrotation 
				JOINT Foot_L
				{
					OFFSET 40.9854 0.0 -1.26872e-05
					CHANNELS 6 Xposition Yposition Zposition Zrotation Xrotation Yrotation 
					JOINT Toes_L
					{
						OFFSET 11.7543 0.0 0.0
						CHANNELS 6 Xposition Yposition Zposition Zrotation Xrotation Yrotation 
						End Site
						{
							OFFSET 0.0 0.0 0.0
						}
					}
				}
			}
		}
		JOINT UpperLeg_R
		{
			OFFSET -2.19251 6.46944 0.0
			CHANNELS 6 Xposition Yposition Zposition Zrotation Xrotation Yrotation 
			JOINT LowerLeg_R
			{
				OFFSET -39.0811 -0.00228153 -0.0401928
				CHANNELS 6 Xposition Yposition Zposition Zrotation Xrotation Yrotation 
				JOINT Foot_R
				{
					OFFSET -40.9854 0.0 0.0
					CHANNELS 6 Xposition Yposition Zposition Zrotation Xrotation Yrotation 
					JOINT Toes_R
					{
						OFFSET -11.7543 0.0 0.0
						CHANNELS 6 Xposition Yposition Zposition Zrotation Xrotation Yrotation 
						End Site
						{
							OFFSET 0.0 0.0 0.0
						}
					}
				}
			}
		}
	}
}
MOTION
Frames:	4
Frame Time:	0.0333333
0.000000 0.000000 0.000000 0.000000 0.000000 -0.000000 5.443680 90.481300 -1.240890 89.921800 -9.377400 13.106200 15.735700 0.000005 -0.000001 89.333400 81.632800 -91.631200 8.984550 -0.406207 -0.000000 8.967120 -0.217814 -4.574540 16.377300 -0.000001 -0.000001 25.949200 0.250275 5.793730 6.456720 -0.000001 -0.000000 11.616500 -0.262813 -14.582800 12.994200 -0.242716 4.980390 -91.012800 3.322780 -73.038000 5.348090 -0.000007 -0.000001 -60.701100 29.514200 -14.059700 24.328600 0.000019 0.000005 7.768820 23.786400 -18.688500 22.291600 -0.000001 0.000005 9.031920 5.225120 2.081530 12.994500 -0.242716 -4.980390 91.993400 -5.570010 -70.272100 -5.348130 -0.000001 -0.000004 -49.504900 -54.452500 -87.351400 -24.328900 0.000322 -0.000009 -3.938490 -1.703840 -66.635300 -22.291500 -0.000108 -0.000004 29.658800 5.386790 -2.512860 -2.192480 -6.469440 -0.000000 -177.888000 -17.805900 2.014530 39.081100 -0.000007 -0.000012 -0.045111 0.072316 31.956800 40.985400 -0.000006 -0.000013 3.651940 1.277600 -71.276600 11.754300 -0.000000 0.000003 -0.000191 -0.001780 -16.644800 -2.192510 6.469440 -0.000001 170.428000 15.493900 -179.116000 -39.081100 -0.002282 -0.040193 -0.076288 0.127091 32.055300 -40.985400 0.000008 0.000006 2.289330 14.135900 -69.488600 -11.754300 -0.000006 -0.000006 -0.003133 -0.042095 -18.285100
0.000000 0.000000 0.000000 0.000000 0.000000 -0.000000 5.427160 90.480600 -1.257750 89.938900 -9.289480 13.187500 15.735700 0.000005 -0.000001 89.575200 81.678200 -91.840300 8.984550 -0.406207 -0.000000 8.878340 -0.144820 -4.514950 16.377300 -0.000001 -0.000001 26.070800 -0.075755 5.968430 6.456720 -0.000001 -0.000000 11.682000 -0.722892 -14.422000 12.994200 -0.242716 4.980390 -91.000600 3.318150 -73.208200 5.348090 -0.000007 -0.000001 -60.673800 30.612800 -15.282100 24.328600 0.000019 0.000005 8.074710 22.906600 -20.026400 22.291600 -0.000001 0.000005 9.081650 5.239240 1.715480 12.994500 -0.242716 -4.980390 92.068000 -5.748500 -70.175500 -5.348130 -0.000001 -0.000004 -48.476900 -53.668000 -88.650200 -24.328900 0.000322 -0.000009 -3.285630 -1.259560 -69.042500 -22.291500 -0.000108 -0.000004 29.774800 5.407100 -3.169640 -2.192480 -6.469440 -0.000000 -177.863000 -17.830100 2.088770 39.081100 -0.000007 -0.000012 -0.044328 0.071060 31.957100 40.985400 -0.000006 -0.000013 3.669710 1.354450 -71.266800 11.754300 -0.000000 0.000003 -0.000195 -0.001809 -16.645800 -2.192510 6.469440 -0.000001 170.382000 15.548200 -179.024000 -39.081100 -0.002282 -0.040193 -0.074224 0.123726 32.069600 -40.985400 0.000008 0.000006 2.289610 14.105100 -69.500300 -11.754300 -0.000006 -0.000006 -0.003337 -0.044356 -18.377100
0.000000 0.000000 0.000000 0.000000 0.000000 -0.000000 5.408560 90.486100 -1.286080 89.925100 -9.192040 13.208400 15.735700 0.000005 -0.000001 89.987600 81.754900 -92.248200 8.984550 -0.406207 -0.000000 8.727690 -0.022578 -4.515360 16.377300 -0.000001 -0.000001 26.222000 -0.543168 6.172430 6.456720 -0.000001 -0.000000 11.715400 -1.379310 -14.217500 12.994200 -0.242716 4.980390 -90.968500 3.244830 -73.370800 5.348090 -0.000007 -0.000001 -60.813000 31.652500 -16.575000 24.328600 0.000019 0.000005 8.354230 22.325900 -21.135500 22.291600 -0.000001 0.000005 9.074590 5.247610 1.495910 12.994500 -0.242716 -4.980390 92.137700 -5.952280 -70.203100 -5.348130 -0.000001 -0.000004 -47.463700 -52.802200 -89.102200 -24.328900 0.000322 -0.000009 -2.640490 -0.923646 -70.722600 -22.291500 -0.000108 -0.000004 29.607400 5.414090 -3.401840 -2.192480 -6.469440 -0.000000 -177.843000 -17.764400 2.084160 39.081100 -0.000007 -0.000012 -0.045337 0.072674 31.958100 40.985400 -0.000006 -0.000013 3.669650 1.394580 -71.238300 11.754300 -0.000000 0.000003 -0.000198 -0.001838 -16.646900 -2.192510 6.469440 -0.000001 170.372000 15.677400 -178.984000 -39.081100 -0.002282 -0.040193 -0.075470 0.125791 32.054000 -40.985400 0.000008 0.000006 2.360660 14.116900 -69.499900 -11.754300 -0.000006 -0.000006 -0.003338 -0.044364 -18.377400
0.000000 0.000000 0.000000 0.000000 0.000000 -0.000000 5.387200 90.490800 -1.314250 89.893600 -9.075690 13.225400 15.735700 0.000005 -0.000001 90.508500 81.811700 -92.788900 8.984550 -0.406207 -0.000000 8.616550 0.127640 -4.566340 16.377300 -0.000001 -0.000001 26.239800 -0.972623 6.349690 6.456720 -0.000001 -0.000000 11.720700 -2.000410 -14.133900 12.994200 -0.242716 4.980390 -90.952600 3.216510 -73.493200 5.348090 -0.000007 -0.000001 -60.847600 32.886400 -17.862000 24.328600 0.000019 0.000005 8.634570 21.713500 -22.315900 22.291600 -0.000001 0.000005 9.078150 5.250800 1.411460 12.994500 -0.242716 -4.980390 92.182200 -6.075500 -70.199500 -5.348130 -0.000001 -0.000004 -46.587100 -51.955600 -88.943200 -24.328900 0.000322 -0.000009 -2.437210 -0.821369 -71.374600 -22.291500 -0.000108 -0.000004 29.607600 5.431090 -3.976090 -2.192480 -6.469440 -0.000000 -177.826000 -17.651100 2.061410 39.081100 -0.000007 -0.000012 -0.044695 0.071599 31.974600 40.985400 -0.000006 -0.000013 3.662070 1.395310 -71.211800 11.754300 -0.000000 0.000003 -0.000187 -0.001754 -16.643800 -2.192510 6.469440 -0.000001 170.381000 15.831600 -178.929000 -39.081100 -0.002282 -0.040193 -0.070859 0.118552 32.026800 -40.985400 0.000008 0.000006 2.373280 14.122100 -69.483400 -11.754300 -0.000006 -0.000006 -0.003453 -0.045626 -18.428800
